<svg xmlns="http://www.w3.org/2000/svg" width="3146.699" height="880.196"><path xmlns="http://www.w3.org/2000/svg" d="M440.098 73.35H73.35v366.748c0 202.536 164.211 366.748 366.748 366.748h366.748V440.098c0-202.537-164.212-366.748-366.748-366.748m305.62 672.368h-305.62c-168.512 0-305.62-137.109-305.62-305.62v-305.62h305.62c168.511 0 305.62 137.117 305.62 305.62z"/><path xmlns="http://www.w3.org/2000/svg" d="M440.098 195.596c-135.028 0-244.502 109.474-244.502 244.502S305.07 684.6 440.098 684.6 684.6 575.125 684.6 440.098 575.125 195.596 440.098 195.596m0 427.876c-101.296 0-183.374-82.106-183.374-183.374s82.078-183.374 183.374-183.374c101.268 0 183.374 82.105 183.374 183.374s-82.106 183.374-183.374 183.374"/><path xmlns="http://www.w3.org/2000/svg" d="M440.098 317.851c-67.51 0-122.247 54.738-122.247 122.247s54.738 122.246 122.247 122.246 122.246-54.737 122.246-122.246S507.607 317.85 440.098 317.85m0 183.375c-33.76 0-61.128-27.369-61.128-61.128s27.369-61.128 61.128-61.128 61.128 27.369 61.128 61.128-27.369 61.128-61.128 61.128"/><g transform="translate(3066.015 630.807)scale(7.33496)"><circle xmlns="http://www.w3.org/2000/svg" cx="-285" cy="-51" r="3"/><circle xmlns="http://www.w3.org/2000/svg" cx="-285" cy="-25.5" r="3"/><circle xmlns="http://www.w3.org/2000/svg" cx="-285" r="3"/></g><path d="M1224.34 256.724c66.663 0 124.095 50.253 124.095 123.07s-57.432 123.07-124.095 123.07-124.095-50.254-124.095-123.07 57.432-123.07 124.095-123.07m0 199.305c40.34 0 72.133-31.794 72.133-76.235s-31.793-76.235-72.133-76.235-72.133 31.793-72.133 76.235 31.793 76.235 72.133 76.235m316.563-195.887h49.912v239.303h-37.947l-118.626-148.368v148.368h-49.911V260.142h38.63l117.942 148.71zm140.847 193.493h101.19v45.81h-151.102V260.142h148.026v45.81h-98.114v50.595h74.183v45.126h-74.183zm570.223-193.493-78.628 239.303h-35.895L2081.385 348l-55.724 151.444h-35.895l-78.628-239.303h52.647l45.809 141.873 52.305-141.873h39.314l52.304 141.873 45.81-141.873zm175.375 239.303-18.119-42.733H2293.68l-18.118 42.733h-52.989l106.319-239.303h45.126l106.66 239.303zm-116.233-83.414h80.68l-40.34-94.696zm385.277 83.414h-52.988l-50.937-79.654h-34.528v79.654h-49.912V260.142h83.756c53.672 0 88.542 32.477 88.542 81.363 0 32.477-15.726 56.749-42.391 69.056zM2557.94 305.952v70.765h30.767c24.614 0 41.707-9.572 41.707-35.212 0-25.298-17.093-35.553-41.707-35.553zm254.686-45.81c68.03 0 121.36 53.33 121.36 118.284 0 67.689-53.33 121.019-121.36 121.019h-85.465V260.142zm-.342 192.126c45.81 0 70.423-33.16 70.423-73.842 0-37.946-24.614-71.107-70.423-71.107h-35.212v144.949zM1283.45 610.296v12.49h30.241v7.167h-37.407v-49.045h34.515v7.232h-27.35v14.858q2.039-1.183 4.537-1.578 1.84-.328 4.733-.328h10.717v7.297h-10.717q-2.695 0-4.733.329-2.498.46-4.536 1.578m101.573-23.076-4.602 5.39q-2.696-2.76-6.443-4.338t-7.89-1.578q-5.39 0-9.828 2.432t-6.936 6.64q-2.564 4.405-2.564 9.796 0 5.128 2.761 9.467 2.63 4.076 7.068 6.476t9.566 2.4q4.733 0 8.81-2.039t6.77-5.653l4.405 5.982q-3.747 4.208-8.974 6.542t-11.077 2.333q-7.298 0-13.412-3.55-5.982-3.418-9.401-9.4-3.55-6.115-3.55-13.413 0-7.034 3.747-12.95 3.55-5.655 9.631-8.975t13.05-3.32q5.457 0 10.388 2.104 4.8 1.972 8.48 5.654m54.04 17.882q0-5.26-2.695-9.533-2.564-4.142-7.001-6.508t-9.632-2.367q-5.39 0-9.828 2.432t-6.936 6.64q-2.564 4.405-2.564 9.796 0 5.128 2.76 9.467 2.63 4.076 7.068 6.476t9.599 2.4 9.598-2.499 7.002-6.706q2.63-4.404 2.63-9.598m7.1.394q0 7.1-3.68 13.083-3.55 5.72-9.632 9.106t-13.116 3.385q-7.297 0-13.411-3.55-5.983-3.418-9.402-9.4-3.55-6.115-3.55-13.413 0-7.034 3.748-12.95 3.55-5.655 9.63-8.975t13.05-3.32q7.167 0 13.281 3.484 5.983 3.42 9.467 9.27 3.616 6.114 3.616 13.28m53.056-9.27-16.765 20.052-16.633-20.051v33.726h-7.034V587.81l-5.72-6.903h9.27l20.051 24.062 20.315-24.062h9.27l-5.72 6.903v42.142h-7.034zm64.822 0-16.764 20.052-16.633-20.051v33.726h-7.035V587.81l-5.72-6.903h9.27l20.052 24.062 20.315-24.062h9.27l-5.72 6.903v42.142h-7.035zm30.11 14.07v12.49h30.243v7.167h-37.408v-49.045h34.515v7.232h-27.35v14.858q2.039-1.183 4.537-1.578 1.84-.328 4.734-.328h10.716v7.297h-10.716q-2.696 0-4.734.329-2.498.46-4.536 1.578m48.914-22.222v16.305q2.038-1.184 4.536-1.578 1.84-.329 4.733-.329h9.336q3.879 0 6.048-1.775 2.301-1.906 2.301-5.72 0-3.615-2.432-5.39-2.104-1.513-5.917-1.513zm20.972 34.121-5.983-12.557h-5.72q-2.695 0-4.733.329-2.498.46-4.536 1.578v18.408h-7.166v-49.045h25.771q4.536 0 8.02 1.71t5.392 4.865q2.038 3.353 2.038 7.889 0 5.522-2.959 9.073t-8.35 4.93l3.814 7.824q1.643 2.432 2.564 3.418 1.118 1.25 2.137 1.677t2.662.427h.723l1.578-.066v7.298q-3.813 0-5.654-.263-3.09-.526-5.26-2.038-2.563-1.841-4.338-5.457m69.096-34.975-4.602 5.39q-2.696-2.76-6.443-4.338t-7.89-1.578q-5.39 0-9.828 2.432t-6.936 6.64q-2.564 4.405-2.564 9.796 0 5.128 2.761 9.467 2.63 4.076 7.068 6.476t9.565 2.4q4.734 0 8.81-2.039t6.772-5.653l4.404 5.982q-3.747 4.208-8.974 6.542t-11.077 2.333q-7.298 0-13.412-3.55-5.982-3.418-9.401-9.4-3.55-6.115-3.55-13.413 0-7.034 3.747-12.95 3.55-5.655 9.631-8.975t13.05-3.32q5.457 0 10.388 2.104 4.8 1.972 8.48 5.654m18.802 23.076v12.49h30.242v7.167h-37.408v-49.045h34.515v7.232h-27.349v14.858q2.038-1.183 4.537-1.578 1.84-.328 4.733-.328h10.716v7.297h-10.716q-2.695 0-4.733.329-2.499.46-4.537 1.578m74.882-24.194-2.696-6.048h7.89l23.601 49.899h-8.02l-3.222-7.166h-14.924q-4.207 0-7.56.789-2.958.723-4.93 1.906-1.776 1.052-2.367 2.17l-1.25 2.3h-7.757zm5.26 29.453h9.072l-10.716-20.709-10.848 23.47q1.446-1.249 4.405-1.972 3.353-.789 8.086-.789m34.186-27.744-5.72-6.903h9.27l31.49 37.474v-37.474h7.233v49.045h-7.1l-28.139-33.726v33.726h-7.034zm66.532.33v34.646h11.11q4.602 0 8.284-2.367 3.484-2.3 5.457-6.18t1.972-8.48q0-4.8-1.874-8.81t-5.358-6.377q-3.747-2.433-8.612-2.433zm-10.914 0-3.155-7.233h24.982q6.509 0 11.9 3.353 5.193 3.222 8.217 8.81t3.025 12.162q0 4.931-1.94 9.763t-5.358 8.448q-3.287 3.55-7.034 5.063-3.616 1.446-8.613 1.446h-18.145V588.14zm115.971-.921-4.602 5.39q-2.695-2.76-6.443-4.338t-7.889-1.578q-5.39 0-9.828 2.432t-6.936 6.64q-2.564 4.405-2.564 9.796 0 5.128 2.761 9.467 2.63 4.076 7.067 6.476t9.566 2.4q4.734 0 8.81-2.039t6.771-5.653l4.405 5.982q-3.747 4.208-8.974 6.542t-11.078 2.333q-7.297 0-13.411-3.55-5.983-3.418-9.402-9.4-3.55-6.115-3.55-13.413 0-7.034 3.748-12.95 3.55-5.655 9.631-8.975t13.05-3.32q5.457 0 10.387 2.104 4.8 1.972 8.481 5.654m54.041 17.882q0-5.26-2.695-9.533-2.564-4.142-7.002-6.508t-9.631-2.367q-5.391 0-9.829 2.432t-6.936 6.64q-2.564 4.405-2.564 9.796 0 5.128 2.761 9.467 2.63 4.076 7.068 6.476t9.598 2.4 9.599-2.499 7.001-6.706q2.63-4.404 2.63-9.598m7.1.394q0 7.1-3.681 13.083-3.55 5.72-9.632 9.106t-13.115 3.385q-7.298 0-13.412-3.55-5.983-3.418-9.401-9.4-3.55-6.115-3.55-13.413 0-7.034 3.747-12.95 3.55-5.655 9.631-8.975t13.05-3.32q7.166 0 13.28 3.484 5.983 3.42 9.468 9.27 3.615 6.114 3.615 13.28m49.308 9.533q0 4.8-2.893 8.547-2.827 3.55-7.79 5.522t-11.21 1.972q-5.72 0-11.11-2.662t-9.073-7.396l5.128-4.8q6.377 7.692 15.055 7.692 3.813 0 6.97-.92 3.483-1.052 5.39-2.958 2.17-2.104 2.17-4.997 0-3.484-2.17-5.26-1.84-1.511-5.457-1.972-2.103-.263-6.903-.263-8.81 0-13.444-3.221t-4.635-9.467q0-3.945 2.334-7.495t6.41-5.654q4.207-2.235 9.335-2.235 5.786 0 10.453 1.775 4.997 1.907 9.27 5.983l-4.47 5.26q-4.01-3.222-7.298-4.504t-7.955-1.282q-2.695 0-5.029 1.117t-3.715 2.992-1.38 3.977q0 5.654 10.453 5.654 8.35 0 13.214 1.71 4.602 1.643 6.575 4.996 1.775 2.958 1.775 7.89m52.397-18.802-16.764 20.051-16.633-20.051v33.726h-7.035V587.81l-5.72-6.903h9.27l20.052 24.062 20.314-24.062h9.27l-5.72 6.903v42.142h-7.034zm30.11 14.069v12.49h30.242v7.167h-37.408v-49.045h34.516v7.232h-27.35v14.858q2.038-1.183 4.537-1.578 1.84-.328 4.733-.328h10.716v7.297h-10.716q-2.695 0-4.733.329-2.499.46-4.537 1.578m78.235-22.156h-17.29v41.813h-6.97V588.14h-17.487v-7.232h41.747zm16.238 41.813h-7.034v-49.045h7.034zm56.474-42.733-4.602 5.39q-2.696-2.76-6.443-4.338t-7.89-1.578q-5.39 0-9.828 2.432t-6.936 6.64q-2.564 4.405-2.564 9.796 0 5.128 2.761 9.467 2.63 4.076 7.068 6.476t9.565 2.4q4.734 0 8.81-2.039t6.772-5.653l4.404 5.982q-3.747 4.208-8.974 6.542t-11.077 2.333q-7.298 0-13.412-3.55-5.983-3.418-9.401-9.4-3.55-6.115-3.55-13.413 0-7.034 3.747-12.95 3.55-5.655 9.631-8.975t13.05-3.32q5.457 0 10.388 2.104 4.8 1.972 8.48 5.654m65.94.92h-17.29v41.813h-6.97V588.14h-17.487v-7.232h41.747zm16.37-.066v16.305q2.038-1.184 4.536-1.578 1.841-.329 4.734-.329h9.335q3.88 0 6.049-1.775 2.3-1.906 2.3-5.72 0-3.615-2.432-5.39-2.103-1.513-5.917-1.513zm20.972 34.121-5.982-12.557h-5.72q-2.696 0-4.734.329-2.498.46-4.536 1.578v18.408h-7.166v-49.045h25.771q4.537 0 8.021 1.71t5.391 4.865q2.038 3.353 2.038 7.889 0 5.522-2.958 9.073t-8.35 4.93l3.813 7.824q1.644 2.432 2.564 3.418 1.118 1.25 2.137 1.677t2.663.427h.723l1.578-.066v7.298q-3.814 0-5.654-.263-3.09-.526-5.26-2.038-2.564-1.841-4.339-5.457m42.405-36.093-2.696-6.048h7.89l23.601 49.899h-8.02l-3.222-7.166h-14.924q-4.207 0-7.56.789-2.959.723-4.93 1.906-1.776 1.052-2.368 2.17l-1.249 2.3h-7.758zm5.259 29.453h9.073l-10.717-20.709-10.847 23.47q1.446-1.249 4.405-1.972 3.352-.789 8.086-.789m42.536-27.415v34.647h11.11q4.602 0 8.284-2.367 3.484-2.3 5.457-6.18t1.972-8.48q0-4.8-1.874-8.81t-5.358-6.377q-3.747-2.433-8.612-2.433zm-10.914 0-3.155-7.232h24.982q6.509 0 11.9 3.353 5.193 3.222 8.218 8.81t3.024 12.162q0 4.931-1.94 9.763t-5.358 8.448q-3.287 3.55-7.034 5.063-3.616 1.446-8.613 1.446h-18.145V588.14zm63.18 41.813h-7.035v-49.045h7.035zm15.91-42.142-5.72-6.903h9.27l31.49 37.474v-37.474h7.232v49.045h-7.1l-28.138-33.726v33.726h-7.035zm98.746-.591-4.602 5.39q-2.696-2.76-6.443-4.338t-7.89-1.578q-5.39 0-9.828 2.432t-6.936 6.64q-2.564 4.405-2.564 9.796 0 5.128 2.761 9.467 2.63 4.076 7.068 6.476t9.565 2.4q3.616 0 6.936-1.25t5.95-3.484v-8.941h-6.311l-3.09-7.1h16.501v19.065q-3.747 4.208-8.974 6.542t-11.077 2.333q-7.298 0-13.412-3.55-5.983-3.418-9.401-9.4-3.55-6.115-3.55-13.413 0-7.034 3.747-12.95 3.55-5.655 9.631-8.975t13.05-3.32q5.457 0 10.388 2.104 4.799 1.972 8.48 5.654"/></svg>