<svg xmlns="http://www.w3.org/2000/svg" xml:space="preserve" viewBox="0 0 2500 1020"><path d="M2479.7 9.2c-20.8-8.1-42.3-9.2-63.9-5.6-15.8 2.7-31.4 6.6-41 22.3-4.3-8.8-11.5-13.3-19.6-16.5-18.8-7.5-38.4-9.2-58.3-6.5-18 2.4-35.8 5.6-47.1 22.9-5.7-11.1-15.7-15.5-26.1-18.7C2201 .2 2178.1 0 2155.2 6c-12 3.1-23.4 7.6-30.1 20.1-5.9-11.2-15.9-15.8-26.5-19-22.7-6.9-45.6-7-68.5-1-12 3.1-23.4 7.7-30.1 20.1-5.8-11.2-15.6-15.8-26-18.9-22.2-6.8-44.7-7.2-67.2-1.6-12.7 3.1-24.6 7.7-31.9 20.5-4.3-8.9-11.5-13.4-19.6-16.6-20.9-8.3-42.6-9.5-64.5-5.8-15.8 2.7-31.4 6.6-41 22.3-4.3-8.9-11.5-13.3-19.6-16.5-18.6-7.4-38-9.1-57.7-6.6-18.2 2.3-36.2 5.5-47.7 22.9-5.7-11.1-15.7-15.5-26.1-18.7-22.7-6.9-45.6-7-68.5-1.1-12 3.1-23.4 7.6-29.9 19.7-7.6-10.4-13.6-14.7-26.8-18.7-22.7-6.8-45.6-7-68.5-1-12 3.1-23.3 7.7-30 20.1-5.8-11.2-15.6-15.7-26-19-21.8-6.7-43.9-7.1-66-1.8-13.1 3.1-25.5 7.5-33.1 20.8-4.3-8.9-11.5-13.4-19.6-16.6-19.5-7.7-39.7-9.3-60.2-6.4-17.4 2.5-34.5 6-45.4 22.7-4.2-8.8-11.5-13.4-19.6-16.4-26.7-10-53.7-10.2-80.8-1.6-9.9 3.1-18.7 7.9-24.2 18.2C994 14.8 983.9 10.2 973 6.9c-22.8-6.9-45.7-7-68.6-.9-11.7 3.1-22.9 7.7-29.4 19.9-6-11.3-16-15.8-26.6-19.1-22.7-6.9-45.6-7-68.5-1-11.9 3.2-23.3 7.8-30 20.2-4.5-9.1-11.9-13.6-20.2-16.8-21-8.2-42.6-9.3-64.5-5.5-15.6 2.7-31 6.7-40.4 22.2-4.3-8.8-11.5-13.3-19.6-16.5-19-7.6-38.8-9.2-58.9-6.5-17.8 2.4-35.4 5.8-46.6 22.9-4.3-8.8-11.5-13.3-19.6-16.4-21.8-8.5-44.2-9.5-67-5.2-14.9 2.8-29.2 6.9-38.2 21.6-5.8-11-15.8-15.6-26.4-18.8-22.9-6.9-46-7-69-.9-11.7 3.1-22.9 7.7-29.4 19.9-6-11.3-16-15.9-26.6-19.1-22.3-6.7-44.7-7-67.2-1.3-12.4 3.1-24.2 7.7-31.3 20.5-4.2-9.1-11.4-13.6-19.5-16.7C77.7-1 49.8-.8 22 8.4c-9.3 3.1-17.3 8.3-22 17.4V1020h2500V25.9c-4.5-8.5-11.7-13.4-20.3-16.7"/></svg>