<svg xmlns="http://www.w3.org/2000/svg" xml:space="preserve" viewBox="0 0 2500 1020"><path d="M0 0v995.5c4.8 8.7 12.8 13.6 22 16.5 27.8 8.7 55.6 8.9 83.2-1 8.1-2.9 15.3-7.1 19.5-15.7 7.2 12 18.9 16.4 31.4 19.3 22.5 5.4 45 5.1 67.2-1.2 10.7-3 20.7-7.3 26.6-18 6.5 11.6 17.7 15.9 29.4 18.8 23 5.8 46.2 5.7 69-.8 10.6-3 20.7-7.4 26.4-17.8 9 13.9 23.3 17.7 38.2 20.4 22.7 4.1 45.2 3.1 67-4.9 8.1-3 15.4-7.2 19.6-15.5 11.2 16.1 28.8 19.3 46.6 21.6 20.1 2.5 39.9 1 58.9-6.1 8.1-3 15.3-7.2 19.6-15.6 9.5 14.6 24.8 18.4 40.4 20.9 21.9 3.6 43.6 2.6 64.5-5.2 8.3-3.1 15.7-7.3 20.2-15.9 6.7 11.7 18.1 16.1 30 19 22.8 5.6 45.8 5.5 68.4-.9 10.7-3 20.7-7.4 26.6-18 6.5 11.6 17.7 15.9 29.5 18.8 22.8 5.7 45.7 5.7 68.4-.7 10.9-3.1 21-7.4 27.1-18.1 5.5 9.7 14.3 14.2 24.2 17.2 27.1 8.1 54.1 7.9 80.8-1.5 8.1-2.9 15.4-7.2 19.6-15.5 10.9 15.8 28 19.1 45.4 21.5 20.5 2.7 40.7 1.3 60.2-6 8.1-3 15.3-7.2 19.6-15.7 7.5 12.5 20 16.7 33.1 19.6 22.1 5 44.2 4.6 66-1.7 10.4-3 20.3-7.3 26-17.9 6.7 11.7 18.1 16 30 19 22.8 5.6 45.7 5.5 68.5-.9 13.2-3.7 19.2-7.8 26.8-17.6 6.5 11.4 17.9 15.7 29.9 18.6 22.9 5.6 45.8 5.5 68.5-1 10.5-3 20.4-7.1 26.1-17.7 11.5 16.4 29.5 19.5 47.7 21.7 19.7 2.4 39.1.8 57.7-6.2 8.1-3 15.3-7.2 19.6-15.6 9.6 14.8 25.2 18.5 41 21 21.9 3.5 43.6 2.4 64.5-5.5 8.1-3 15.3-7.3 19.6-15.7 7.2 12.1 19.2 16.4 31.9 19.4 22.5 5.3 45 4.9 67.2-1.5 10.4-3 20.3-7.3 26-17.9 6.7 11.8 18.1 16 30.1 19 22.8 5.6 45.8 5.5 68.5-1 10.7-3 20.6-7.4 26.5-17.9 6.7 11.7 18.2 16 30.1 19 22.9 5.6 45.8 5.5 68.5-1 10.5-3 20.4-7.2 26.1-17.7 11.3 16.3 29.1 19.4 47.1 21.6 19.9 2.5 39.5.9 58.3-6.2 8.1-3 15.3-7.2 19.6-15.6 9.6 14.8 25.2 18.5 41 21 21.7 3.4 43.1 2.4 63.9-5.3 8.6-3.1 15.9-7.8 20.3-15.8V0z"/></svg>