<svg xmlns="http://www.w3.org/2000/svg" xml:space="preserve" viewBox="0 0 430 440"><path d="M88.2 383.2c-2.8 0-5.2.4-8.3.7-6.9-4.7-10-13.6-19-19.4 1.4 6.1 1 10.4 4.2 14.4 1 1.4.3 4.7 0 7.2 0 .7-1.4 1.1-2.8 1.8-.7-1.8-1-2.9-1.4-4-.3-4-1.7-6.8-5.5-8.3-1 0-1.4-2.5-2.1-3.6 1 0 2.1.7 4.8 1.4-2.8-5-3.8-9.3-6.9-12.2-.3-.4-.7-1.1-1-1.4.3.4.7 1.1 1.4 1.4.7 3.6 1.4 7.5 2.1 11.1-2.4-1.1-4.5-2.5-5.2-5.7-2.1-8.3-3.8-16.5-7.6-24.1-1.7-3.2-2.4-6.5-5.5-9-2.1-1.4-3.1-5.4-3.8-8.6-2.1-7.5-3.5-15.1-5.2-22.6-1-5.7-2.4-11.5.3-17.2.7-1.1 0-2.9 0-4.3-.7.4-1.4.7-2.4 1.1-.3-2.9-.7-5.4-1.4-8.3-2.8 3.2-3.1 3.2-3.1 14.4 0 5.4.7 11.1 1.4 16.5.3 5 1 10.1 1.7 15.8-1.4.4-3.1 1.4-4.5 1.4-1.7-.4-2.4-2.5-2.1-4.3 2.1-9.7-1.7-19-1.7-28.7 0-1.4-1.4-2.5-1.7-4-1-2.9-1.7-5.4-2.4-8.3 1.4 1.1 2.8 1.8 4.5 2.9 2.1-5.4-.7-10.8 2.1-15.4 0-.4-1-2.2-2.1-3.2 0-.4-1.7-.4-1.7 0-.7 1.1-1.7 2.5-1.7 3.6.3 4.3 2.1 8.6-1 12.6-2.4-2.5-1.4-5.4-1.4-8.3 0-7.2-.3-14-3.1-20.5-2.1-5.4-.7-15.4 3.1-23 2.1 5.7 0 10.8.7 15.4.7 4.7 2.4 9.3 3.5 13.3 2.8 1.1 4.2 0 4.5-1.8.3-2.5.7-5 .7-7.5 0-8.6-.3-16.9.7-25.5 1.7-12.6 1.7-25.5 5.5-38.1 3.5-11.9 9.3-21.9 15.9-32 1.4-1.8 3.5-3.2 5.2-4.7 1.7 2.9.3 4.3-.7 5.4-7.3 8.3-11.4 18.3-15.9 28.4-1 2.5-1.7 5.4-2.4 8.3v3.2c-4.2 11.1-2.4 23.3-4.8 34.8v3.9c1.4 1.1 3.1 1.8 5.2 3.2v11.1c3.5-5.4 4.8-10.1 5.5-16.2.3-4.7.7-9.3 2.4-14 1.4-3.2 1.4-6.8-1.4-10.1-2.1-2.2-1.4-4.7 1.4-6.1 0 .7.3 1.1.7 1.4 0 0-.3-.7-.7-1.4.7-3.2 1.4-6.5 2.4-9.3 3.8-9.7 7.3-19.8 11.4-29.1 2.4-5.7 5.5-10.8 8.3-16.2.7-1.4 1-3.2 1.7-5 1.4-.7 2.8-1.1 3.8-1.8 0-.4-.7-.7-.7-1.4-1 1.1-2.1 2.2-3.1 3.2-1-1.1-2.1-1.8-3.5-3.2 2.8-3.2 5.2-6.1 8.3-9.7-5.9-1.8-10.7-3.6-15.6-5-2.1 4.3-2.4 4.7-4.8 3.2 6.9-9 15.6-16.5 20.1-28-3.8-2.2-5.2 4-8.7 2.9 0-1.1 0-2.2.7-2.9 4.8-6.8 10.7-12.6 17.3-17.2 8.6-6.1 17.6-12.2 26.6-18.7-4.2-1.4-6.6 2.5-10 2.9v-.7c.7-2.9 3.1-5 5.9-6.1 1.4-.4 2.8-1.8 4.2-2.5 1.7-.7 3.5-1.4 5.2-2.5v-1.4c1-4.7 4.8-5.7 8.3-7.5 8.3-4 17-7.2 24.9-11.9 8-4.7 15.6-5.7 24.2-4.3h2.1c9.7-2.2 19-4 28.7-6.1 4.5-1.1 9-2.9 13.8-4 2.8-.7 5.5-1.1 8-.7 4.2 1.1 8 0 11.8-1.4 2.8-1.1 5.9-1.8 9 0-.7 3.6-4.2 1.8-5.5 3.2-1.4 1.4-3.1 2.9-5.2 4.7 3.5 2.5 7.3 2.5 10 5.7 2.1 2.9 4.5 1.8 9.3-.7 1-.7 2.4-1.1 3.8-.7 5.5 1.1 10.7.4 16.3 0 9-.7 18 1.4 26.6 3.2 0 3.6-2.8 2.2-3.5 4 0 0 0 1.1.7 1.4 2.1.7 4.5 1.8 6.6 2.5 2.4.7 5.2 1.4 8 2.2 0 3.2 3.1 4.3 4.2 6.5-3.8-.7-8-1.4-12.8-2.2 1.4 1.4 1.7 2.2 2.4 2.5 8 2.5 15.9 6.1 24.2 7.5 8 1.4 14.9 5 21.5 9 7.6 4.3 14.5 9.3 21.5 14.4 2.4 1.4 4.5 3.2 6.2 5.4 11.1 12.9 23.9 24.1 33.6 38.4 3.1 4.7 6.2 9.3 9.7 14-1.7 2.5-3.5 1.1-4.5 0-3.1-3.6-5.9-7.2-8.3-11.1-3.8-6.5-8.3-12.6-13.5-17.6-1.4-1.1-2.4-2.5-3.5-3.9-6.2-10.4-16.6-14.7-25.6-20.8-.7-.7-2.1-.7-2.8-.7-2.1 0-1.7 1.8-1 3.2h-4.2c0-.4-.7-1.1-1-1.4h-.7c.7 0 1.4.7 1.7 1.1 1.4 2.9 2.8 1.1 4.2 0 6.6 4.7 12.8 9.7 17.3 16.9.3.7.7 1.4 1.4 1.8 13.5 11.5 20.4 28.4 28.4 43.8 0 .7.3 1.4.7 2.2 7.3 8.6 9 19.8 10.7 30.5.3 2.5 1.4 5 2.1 7.2-1 1.4-3.1 2.5-2.8 4 0 5.7.7 11.9 1.7 17.6 1.7 9 1 17.6 0 26.6-.7 5.4-1.7 10.8-1.7 16.5 0 11.5-4.5 21.5-6.2 32.3-.7 4-4.2 6.8-3.5 11.1 2.8 1.1 4.5-1.4 5.2-2.9 3.1-7.2 9.3-12.9 10-21.5 0-1.1.3-2.2 1-3.2 6.6-9.7 4.8-21.2 5.2-32v-2.2s0-.7.3-1.1c2.1-.7 3.1.7 3.5 2.5.7 8.6-.3 16.9-2.8 25.1-1.7 6.8-4.2 13.3-6.2 20.1-.7 2.5-1.7 4.7-3.1 6.8-4.2 5.7-8.7 11.1-11.4 18.3-.7 1.4-2.1 3.2-3.5 3.6-3.8 1.1-5.2 4.7-6.6 7.9-3.8 8.6-9 16.2-14.9 23.3-1.4 1.4-3.5 1.8-5.2 2.9.7-4 6.2-6.1 4.2-11.5-7.6 6.1-8.3 7.2-10.4 13.6 2.1-.7 4.5-1.8 6.6-2.5-1.7 2.5-2.8 5.4-4.8 6.8-3.1 2.5-6.6 4.7-11.1 3.9-4.2-.7-5.5 1.4-5.9 7.2 0 1.1 0 2.2-.7 2.9-2.1 2.9-3.8 6.1-8 7.2 1-2.2 1.7-4.3 2.8-6.8-2.8.7-4.8 1.1-6.9 1.8v-1.1s0-.4-.3-.7l.7 1.4s-2.1 2.9-3.5 3.6c-6.9 4.3-14.2 7.9-21.1 12.2-3.1 1.8-6.2 4-9.7 5.7-2.1 1.1-4.2 1.8-6.2 2.5-2.1-1.4-3.8-2.2-6.6-1.1-12.8 4.3-25.3 8.3-38.1 12.6-2.1-2.5-4.8-2.5-7.3-1.1-5.9 3.2-12.1 6.5-17.6 10.8-2.8 2.2-5.5 4-8.6 5.4s-5.9 3.2-9 5c-.7 0-1 1.1-1.7 1.1-9.7 1.1-18.3 6.5-27.7 9.3-5.5 1.8-11.1.7-19 1.1 10.7-4.3 19-7.5 27.7-10.8 2.8-1.1 5.2-1.8 5.9-5.4.7 0 1-.4 1.7-.7.3-.4.7-1.1.7-1.4 0 0-1-1.1-1-.7-.3 0-.7.7-1 1.4v2.2c-1.7-.7-3.8-1.1-5.2-1.8-1.4-5.7 4.5-3.6 5.5-7.5h-3.8c-4.8.7-10 1.8-14.9 2.5h-2.1c-8.7 5-18.3 3.6-27.7 4.3h-14.2c-2.1 0-3.5-.4-4.8-2.9-.7-1.4-3.5-1.8-5.2-2.2-6.6-1.1-13.5-1.4-20.1-2.5-4.8-.7-9.3-1.8-12.5-6.5 0 0 2.1-3.6 3.5-5.7h4.5c5.5 1.4 11.4 2.5 16.6 4.3 3.1 1.1 5.9 0 9 0 2.8 0 5.2 1.4 8 1.4 3.1 0 5.9 0 9.3-1.4-12.1-2.5-24.2-5-36-7.9v-1.1c1.7 0 3.5 0 4.8-.4 1.7 0 3.1 0 4.8-.4.7-2.5-.3-3.2-1.7-3.6-9.7-1.4-17.3-7.2-23.9-15.1-4.5-5.7-9-11.9-14.5-16.5-1.7-1.4-2.4-3.6-3.8-5.4-1.4-2.2-2.4-4.7-4.2-6.5-5.2-5-9.3-10.4-10.4-18.3 0-2.5-2.8-5-5.9-5.4-2.4 2.5-1.7 5.4-.7 8.3.7 2.5 2.1 4.3 2.1 7.2 0 10.8 5.5 18.7 11.8 25.9 2.8 3.2 6.9 4.7 7.6 9.7 0 0-2.1 2.9-.7 4.3 1.7 1.8 3.5 3.2 5.5 4.7 3.1 2.2 6.2 4.3 9.3 6.5zM33.2 283c2.1 0 3.1-1.1 1.7-3.6-.7-.7-1-1.8-1.4-2.9.3-.4.7-1.1 1-1.4V274c-.3 0-1 0-1 .7v1.8c-2.8 1.8-1.7 4 0 6.1v.7-1.1zm32.5 44.9v-3.2s0-.7-.7-1.1c-.3.4-1 1.1-1 1.4 0 1.1 1 1.8 1.4 2.9.3 1.8.7 3.6 1 5 0 0 1 0 2.1.7-1.4-2.2-2.4-4-3.5-5.4zM400.6 265s2.4-2.2 3.5-3.6c0 0 0-1.4-.3-1.8 0 0-1.4 0-1.4.4-.3 1.8-.7 3.2-1 5 0 0-.3.4-.7.7v.7c0-.4 0-1.1.3-1.4zM59.5 172c3.8-1.1 4.2-3.6 2.4-7.2-.7 2.5-1.4 5-2.1 7.2h-1.7c0 .4.3.7.7 1.1 0-.4.7-1.1 1-1.4zm12.1-35.5c2.4 0 4.5-.4 6.9-1.1 3.1-.7 4.8-2.9 5.9-6.5-8 2.5-8.3 2.9-12.5 7.5-.7.7-1.7 1.4-2.4 2.2.3 0 .7.7 1 .7l1-3.2v.4zm188.6-62.2c.3-1.8.7-3.6-1.7-4.3-2.1-.4-4.2-.7-3.8 2.9 1.7 0 3.8.7 5.5 1.1 3.8 4.3 8.3 4.7 14.5 4.3-5.2-4.3-9.7-5.7-14.9-4zm-68.9 21.9c2.8 1.1 5.9 1.4 8.6 0 1-.7 2.4-1.4 1.4-3.6-3.8-.4-7.6-1.4-9.7 4h-1.7s-.3.4-.7.7c.3 0 1 .7 1.4.7.3 0 .7-1.1 1-1.8zm113.8 231.3c6.9-2.9 11.8-7.5 14.5-17.2-2.8 2.5-4.5 4-5.5 5.4-3.1 4-5.9 7.9-8.6 12.2h-2.1c-1 .7-1.7 1.8-2.4 2.9l.7.7c1-.7 2.1-1.1 3.1-1.8.3 0 .3-1.4.7-2.2zM83.7 167.7c3.2 1.4 6-.1 8.3-4.7-3.8 0-6.2 2.5-8.3 5-3.1-2.5-4.5-2.9-5.5-.7-2.8 4.7-5.5 9-8 13.6-1 2.2-1.7 4.7 1 7.5 4.5-5 8.7-9.7 9.7-16.9 0-2.2 1-3.2 3.1-3.6zm178.9 188.9c4.2-2.5 8.3-4.7 12.5-7.2 3.1-1.8 6.2-2.9 9-4.7 3.8-2.5 7.3-5.4 10-10.1-1.7 0-2.8-.4-3.8 0-1 0-2.1.7-2.8 1.4-3.1 4.3-8 5.4-12.1 6.8-7.3 2.9-14.5 5.4-21.8 8.3-2.1.7-4.8 1.8-6.9 4.3 6.9-.7 12.3-.1 16.3 1.8 0 0-2.8-.4-4.2 0-9.7 1.4-19.4 3.2-29.1 5-2.1 0-3.8 1.1-5.9 1.4-1 .4-2.8.7-1.4 3.6 5.2-.7 10.4-2.9 15.6-2.5 9.3 1.1 17-3.2 24.6-7.5zM134.2 116.7c6.6-2.2 12.1-5.4 16.3-10.8 4.2-1.1 6.2 4 10 1.8 3.1-1.4 7.6 0 9.7-4.3-1.4-1.8-2.1-3.2-3.8-5.4-4.8 2.2-9.7 2.5-14.5.7-1.4-.7-3.5 0-4.8 1.1-3.8 1.4-7.3 3.6-11.1 4.7-9 2.2-13.5 10.4-19 16.9.3 2.9-1.4 3.6-3.5 4.3-1.7.7-3.8 1.4-5.2 2.2-.3 3.6 1 5 3.5 4 5.2-1.8 10-4.3 14.9-6.5 4.2-1.8 6.6-5 7.6-9.3v.6zm83.7 261.1s-2.8-2.2-4.2-2.2c-9.7-1.4-19.4-2.9-29.1 0-6.6 2.2-12.5 5.7-19 1.1h-1c-6.9 0-14.2 0-22.5.4 2.1 1.8 3.1 3.2 4.2 3.2 3.8.7 7.3.4 11.1 1.1 2.8.4 5.5.7 7.6 2.2 4.5 2.9 9 2.9 13.5.7 3.5-1.8 7.3-1.8 10.7-.7s6.6 1.4 10 0c4.2-1.8 8.3-2.5 12.8-2.5 2.1 0 4.8 0 6.2-3.2h-.3zM324.2 311c11.1-7.9 19-16.9 24.9-27.3-1-2.5-1.7-4.7-2.4-6.1 3.8-5.7 6.9-10.8 10-15.8.7-1.1 0-2.5.3-4.3-1.7.7-3.1 1.1-3.5 1.8-3.8 5.4-7.6 11.1-11.4 16.9-1 1.8-2.8 4-2.8 5.7 0 7.2-4.8 10.8-9 15.1-3.1 3.2-5.5 7.2-6.6 14.4zM68.5 194.6c-6.2 3.6-9.3 9-8.7 15.4.3 3.6 0 6.5-1.4 9.3-2.8 7.5-3.1 15.8-1.7 23.3 2.4-3.6 3.5-7.5 3.5-11.5 0-5.7 1.4-10.8 4.5-15.8 1-1.8 1.7-4.3 1.4-6.1-.7-3.2 0-5.7 1-8.6.7-1.8.3-4.3.7-6.5zm332.8 8.3c-3.1 0-4.8 2.9-4.2 5 2.8 7.9-1.4 15.8 0 23.7 0 .7-.7 1.8-.7 2.5 1 0 2.4.7 3.5.7 4.2-11.1 5.9-21.1 1.4-31.9M93.4 156.2c1.7 2.9 3.5 1.4 4.8.7 3.1-2.2 5.9-5 9-6.5 4.2-2.2 4.2-5 3.5-8.6-2.8-1.1-4.8-1.4-6.9.7-2.4 2.5-4.8 5-7.3 7.5-1.4 1.8-2.4 4.3-3.5 6.1h.4zM349.8 237c5.9-10.8 7.6-18 6.9-26.6-6.9 7.6-6.6 17.3-6.9 26.6m-86.5-119.6c7.6-.4 15.6 3.2 23.5.7-.3-1.1-.7-2.2-1-2.5-7.6-2.9-14.9.7-22.5 1.4zm87.5 93.8c3.8-9.3 3.8-9.3 3.1-14.4 0-1.8-.7-3.6-3.5-3.2-2.8 5.4-3.1 10.8.3 17.2v.4zM209.3 32.7c7.6 1.4 14.2 4.3 21.5 0-7.3-1.5-13.9-1.5-21.5 0M107.2 333.3c1.4 6.1 5.2 9 11.1 9-1.7-6.5-7.6-6.2-11.1-9m-26.6-7.6c0-11.5 0-11.5-6.2-13.3 2.7 4.3 3.1 9 6.2 13.3m101.7-228c-2.4-2.5-4.2-1.4-5.9-1.1-2.1.4-3.8 2.2-2.8 2.9s2.4 1.4 3.5 1.1c1.7-.4 3.1-1.9 5.2-2.9m218 176.7c-5.2 2.2-5.9 4.7-5.2 7.9 0 .4 1 .7 2.1 1.4 1-2.5 1.7-5 3.1-9.3M158.1 32.3c-3.5 0-6.6 0-9.3 3.2 3.7.7 6.5-.3 9.3-3.2m33.5.7c-2.8-1.1-5.5-.7-9.3.7 4.2 3.3 6.6 1.8 9.3-.7m163.7 147.6s-2.1.7-2.4 1.1c-.7.7-1 1.1-1.7 2.2 0 0 1 1.4 1.4 1.4.7 0 1.7-.7 2.4-1.4.3-.4 0-1.5.3-3.3m-51.2 136.9c3-.7 4.7-2.6 5.2-5.7-2.1 2.4-3.8 3.9-5.2 5.7m-270.6-2.9s1.4-.4 2.1-.7c0-1.4-.3-3.2-.7-4.7 0-.4-1-1.1-1.4-.7-.3 0-1.4 1.1-1 1.4 0 1.4.7 3.2 1.4 4.7zm-6.2-59.3s.7 0 .7-.4v-5h-.7c0 1.8-.3 3.2-.7 5 0 .1.3.1.7.4M147 291.6s-1.4.4-1.4.7v1.8c1 .7 2.1 1.4 3.1 2.2 0 0 .7-.7.3-.7-.6-1.5-1.3-2.9-2-4m251.9 11.9s.3-2.5.7-3.6h-1.4c-.3.7-.7 1.8-1 2.5 0 0 1 .4 2.1 1.1zM56.4 276.2s-1.4-1.1-1.7-1.8c0 0-.7.4-.7.7 0 .7.7 1.4 1 2.5.3-.4.7-.7 1.4-1.4M217.2 84.4s1-1.8 1.7-2.5c-.7 0-1.4-.7-1.7-.7s-1 .7-1 1.4c0 .4.7 1.1 1.4 1.8zm70.6-41.7v-1.4H284v1.1h3.8zm112.1 151.9s-1.4-1.1-2.1-1.4c0 .7-1 1.4-.7 1.8 0 .7 1 1.4 1.7 1.8.1-.7.8-1.1 1.1-2.2M58.8 179.2v-.7h-1.4v.7zm-30.5 82.6s.3-.7 0-1.1c0 0-.3 0-.7-.4 0 .4 0 1.1-.3 1.4 0 .1.7.1 1 .1m8 6.5s-.7-1.1-.7-1.8c-.3 0-1.4.7-1.4.7 0 .7.7 1.4 1 2.2 0-.4.7-1.1 1-1.4v.3zm36.3 9.3.7.4s.3-.4.7-.7c0 0-.7-.4-1-.7 0-.1 0 .6-.4 1m227-185.7s-1-1.1-1.7-1.4h-1.7c0 .4 0 1.4.3 1.4zM134.9 354.5s-1.4 0-1.7-.4v1.4h1.7zM385.8 162v-1.8s-.3 0-.7-.4c0 .4-.3 1.1 0 1.4 0 .4 1 .4 1.4.7h-.7zM83 160.9h-.7c0 .4 0 .7.3 1.4 0 0 .7 0 .7-.7v-.7zM230.1 28v-.7h-.7zM77.5 153s0-.4-.3-.7c-.3 0-.7.7-1 1.1 0 0 0 .4.3.7.3-.1.6-.8 1-1.1m319 30.9s0-.4-.3-.7c0 0-.3.4-.3.7 0 0 0 .4.3.7 0 0 .3-.4.7-.7zm-15.6 103.4v-.7c0 .4-.3.7-.7 1.4 0 0 .7 0 .7-.4zM206.2 409h.7l-.7-.7zM143.6 36.2s-.3 0-.7.4v.7s.7-.7 1-.7h-.7zm-19.1 339.1h.7l-.7-.7zm268.9-200.1s0-.7-.3-.7h-.7v1.1c-.1 0 1 0 1-.4"/><path d="M35.6 343.3c3.5 11.5 6.2 22.3 9.7 34.5-2.1-1.4-3.5-2.2-4.2-2.9-2.1-2.9-3.8-6.1-5.5-9.3-.7-1.4-1.4-3.6-1.4-5 0-5.4.7-10.8 1-17.2h.4zM266.7 408s2.1-2.9 3.5-3.6c9.7-5.7 19.4-11.1 29.1-16.5 0 3.9-2.4 6.5-5.5 8.3-9 4-18 7.9-26.6 11.9h-.5z"/><path d="M266.7 407.6c-4.5 6.1-11.4 6.8-17.6 9.3-3.5 1.4-6.9 1.4-10.7.7V414c6.6 0 12.8-1.1 19-4.7 2.8-1.4 6.2-1.4 9.7-1.8h-.4zM1 267.5s2.1 2.2 2.4 3.6c2.4 7.9 4.2 16.2 8.3 23.3 0 .7 0 2.5-.7 2.9-1 0-2.8.4-3.5 0-1-.7-1.7-2.2-2.1-3.6-1.4-8.6-2.8-17.2-4.2-25.9zm79.2 138-1 1.4c-4.5-2.5-8.7-6.1-12.8-10.4 4.6.5 9.2 3.4 13.8 9M420 196.1c.7 4.3 1.7 9 2.4 13.6-2.7-3.9-4.8-8.2-2.4-13.6M92.3 398.6c-3.8-1.1-8-1.8-11.8-2.9-1.4-.4-2.1-2.5-2.1-4.7 2.1 1.1 4.5 2.5 6.6 3.6 2.4 1.4 4.8 2.9 6.9 4.3zm-67.4-62.1c-.3-2.9-1-5.4-1.4-8.3h1c.7 2.9 1.4 5.4 2.1 8.3zM29 149.7q-3.45 3.6-6.9 1.8c.3-2.2 2.1-1.1 3.1-1.4H29zM248.7 10c2.1-2.2 4.5-2.2 7.6-.4-3.1 1.8-5.5 0-8 0zM21.4 164.1s.3-2.5 1-3.6c.3-.7 1.7-1.8 2.1-1.4 1.7.7 1 2.2 0 3.6-.3.7-1 1.8-1.7 2.5l-1.7-.7zm66.4 219.4 9.7 2.2v1.4c-1.4 0-2.8.7-3.8 0-2.1-1.1-3.8-2.5-5.5-3.9zm-14.1-15.4c4.2-.7 7.6.7 10 4.7-3.8-.7-7.3-2.2-10-4.7m347-215.8s2.4 3.2 4.8 6.5c-2.5-1.9-4-4.2-4.5-6.8zM66 344s1.4 1.4 1.7 2.5c0 0-.3 1.1-.7 1.4-.7-.7-1.4-1.4-2.1-2.2.1.1.5-.9 1.1-1.7m350.2-202.2s.3-1.1.7-1.4c.3 0 1 .7 1.4 1.1 0 .4 0 1.1-.7 1.4-.4 0-1.1-.7-1.4-1.1M97.9 408.3s-.7.7-1 1.1c0 0-.7 0-.7-.4s0-1.1.3-1.4c.3 0 1 .7 1.4.7"/><path d="M248.7 9.7s-3.1 1.4-4.5 2.2c1-2.9 2.8-1.8 4.5-1.8zm58.2 35.5s2.4.4 3.8.7v.7c-1-.7-2.4-1.1-3.5-1.8zM6.9 381c-1.7-.7-2.4-2.2-.3-4.7-.1 2.2-.1 3.3.3 4.7m40.8 2.2.7.7-.7.4zM279.5 13.3l-.3-.4h.7zm-174 34.8v1.4h-5.2c1.4-1.8 3.1-1.8 5.2-1.4m-65.4 80.4v1.1s-.7.4-.7 0c0 0 0-.7-.3-.7h.7zm-10.7 21.2s.7-2.2 1-2.9h1.7s0 .7-.3 1.1c-.7.8-1.7 1.1-2.4 1.8M275 410.1l1-1.1v.7h-.7zM16.2 129.6h-.3l.3-.7zm53.7-56.7v.7l-.7-.4zm15.9-10.1s-.7 1.1-1 1.4h-.7c.7-.4 1-.7 1.7-1.1zm.3 0s2.4-1.8 3.8-2.5v.7s-2.4 1.1-3.8 1.8m-63.6 338-.3.7-.3-.7zm284.7-9.7h.7l-.7.4zm13.8-7.9-.7 1.4s.7-1.1 1-1.4zm17-9.4s-.3 0-.7-.4c0 0 .3-.4.7-.4 0 0 .3 0 .7.4 0 .1-.4.1-.7.4M9.6 303.1l.3-.7.3.7zm265.4 107s-1 .4-1.4.7c0 0 0-.4.7-.7h1zm145.7-257.8s0-1.1-.3-1.4v1.8zm-310 258.5.7.4-.7.4zM50.8 139.7l.7-.4v.7zm-38.7-1.5.3.7-.7-.4zm117.3-18.3s-.7.7-1.4 1.1c0 0 0-.4-.3-.7.3 0 .7-.7 1.4-.7l.3.7z"/><path d="M261.9 5.4c-3.9 1-7.7.5-11.4-1.4 0 0-.7 1.8-1 2.9 0 .7 0 1.4-.3 2.5-4.5 1.8-9 3.6-13.5 5-3.8-1.1-7.6-1.8-13.1-3.2 2.4 2.9 3.1 5 4.2 5 3.1 0 6.2-1.1 9.3-1.4 2.1.7 3.8 1.4 5.9 1.8 4.8.4 9.7.4 14.5.7 1 0 2.4.7 3.1 0 6.6-5.7 12.5-1.1 19-.7h2.1c2.8 1.1 5.5 1.8 5.2 6.5 0 2.9 2.8 5.7 4.8 8.6.7 1.1 2.4 1.1 3.5 1.8 1.4-5 2.4-6.1 5.2-5 5.2 1.4 10.4 3.6 15.6 5.4.7 0 1.7.4 1.7.7 2.4 5.7 8.6 7.5 11.8 12.2 1 1.4 1.7 2.9 2.1 4.7.7 2.5.7 5 1 7.2 2.4.7 4.2 1.4 6.2 1.8.3-.4 1-.7 1-1.4.7-2.5 1.4-4.7 2.1-7.2 0-.7 1.7-.7 2.8-1.1 1.7 2.5 4.2 5 3.5 8.6-4.2 4.3-4.2 9.5 0 15.4 0 0 1-2.9 1.4-4 0-.7.7-1.8 1.7-4.3 1.7 9.7 1 18.3 6.9 24.8-2.1-1.4-3.8-2.9-5.9-4.3-1.7 1.1-.7 2.5 0 3.6 6.2 8.3 13.1 16.2 18.7 24.4 8.3 12.2 16.6 24.8 23.9 38.1 4.8 8.6 7.6 18 11.1 27.3 2.4 6.8 5.2 13.6 6.9 20.8 2.8 11.9 5.2 23.7 7.3 35.6.7 3.2-.3 7.2-.7 10.8-.7-2.2-2.4-4.3-2.4-6.8-.7-15.4-5.2-29.4-10-43.5-3.8-11.9-8.3-23.3-12.8-34.8-.3-1.4-1-2.9-2.1-3.6-3.5-2.2-4.8-5.4-6.6-9-.7-1.8-2.8-4-4.2-4-4.2 0-4.8-2.2-6.2-5-3.8-8.6-8.3-16.9-16.3-22.6-2.8-1.8-3.8-4.7-5.5-7.2-3.5-5.7-9-9.3-15.2-10.8 0-1.4.3-2.9 0-4.3 0-2.9-1.4-3.6-4.2-2.2 0 2.9 0 5.7 3.8 6.1 0 3.6 1.7 6.1 3.8 8.6 9.3 11.1 17.6 23 25.6 35.6 10 15.8 19 32.3 24.9 51 2.8 8.6 6.9 16.9 8.6 26.2 1.7 7.2 3.5 14.4 5.2 21.9-2.1 8.6 1.7 17.2-1.4 26.6-3.1 9.3-5.5 19.4-6.2 29.4 0 4.3-1.7 8.6-3.8 12.6-3.8 6.8-5.9 14.4-8.3 21.5-1 2.9-1.7 5.4-4.8 6.8-1.4.7-1.7 2.9-2.4 4.3-2.1 4-3.5 8.3-6.2 11.5-4.2 5-5.9 11.9-11.1 16.5-4.8 4.7-8 6.5-8.3 4.7-1-3.6 1.7-6.1 3.8-8.6 4.5-5.4 9.3-10.4 12.5-16.5 4.2-7.9 9-15.8 8.6-25.5 0-3.6 2.4-7.5 4.2-11.1 4.2-9.3 5.2-19 2.4-28.7 0-.7-.7-1.1-1.7-2.2-1 1.1-2.4 1.8-2.4 2.9-1 7.2-5.2 13.3-6.6 20.5 0 1.1 0 2.5-1 3.2-6.9 6.1-7.3 14.7-10.7 22.3-1 2.5-2.1 5.4-3.5 9.7 4.2-2.9 6.6-4.3 10.4-6.8-.7 2.2-.7 3.2-1.4 4-3.5 4.3-7.6 7.9-10.7 12.6-3.5 5.4-6.9 10.4-12.5 13.6-1.4.7-3.1 2.2-3.8 3.6-2.8 5.7-6.9 10.1-12.1 14-2.4 1.8-2.8 5-1 6.8 1.4 1.8 3.8 2.2 5.5 1.1 3.5-2.2 6.6-4.3 10-6.8 1.4-1.1 3.1-2.2 4.5-2.9.3 0 1.4 0 1.7.4s.7 1.4.7 1.8c-1 1.8-1.7 4.3-3.1 5.4-3.5 3.2-6.6 6.5-11.1 8.6-2.4 1.1-4.8 2.9-7.3 4.7-.7-.7-1.4-1.8-2.4-2.9-.7 0-1.4-.4-2.1 0-5.9 1.8-11.4 3.6-17.3 5.4-.7 0-1.7 1.4-2.1 2.5 0 1.8 1 2.2 2.4 2.5.7 0 1 .7 2.1 1.1-3.8 3.2-9.7 2.5-12.5 7.2-.3.7-4.2-.7-4.8 0-2.8 4.3-6.6 2.9-10 3.2-3.5.4-6.2 3.2-9.7 4-3.1.7-6.6-1.1-9.3 0-3.5 1.1-6.2.7-9.3.4-9-.7-18-1.4-27.7-2.2-.7 2.9-1.4 5-2.1 7.9h-4.8c-2.8-.7-5.5-1.1-8-2.2-3.1-1.4-5.2.7-7.3 2.5-4.8-.4-8.6-1.8-11.8-5.4-3.5 1.8-.7 4.3-1.7 6.1-.7 0-1.4.7-2.1.4-10.7-4.7-21.8-7.9-33.2-10.4-2.4-.4-4.8-1.4-6.6-2.5-5.2-4-11.1-6.8-17-9.7-11.1-5.7-20.8-12.9-29.1-22.6v-1.1s0-.4-.3-.7l.7 1.4c-4.5-1.4-7.6-4.7-9-9.3-.7-2.2-2.1-4.3-3.5-6.1-5.5-6.8-11.8-13.6-17.3-20.8-4.2-5-7.6-10.8-9-17.6-.3-2.2-2.1-4.3-4.2-7.5 6.9 6.5 12.8 12.2 19 18 .3 0 .7-.7 1-1.1-2.1-3.2-4.5-6.5-6.2-9.7-2.1-3.6-4.2-7.2-6.2-10.8-1.4-2.5-2.8-4.7-4.5-7.2-1.4-2.2-2.4-4.7-4.2-5.7-3.8-2.5-4.2-6.5-5.9-10.4-1.7-4 1.4-5 2.1-7.9-1.4-2.5-5.2.7-6.6-2.5-1-2.2-3.5-3.2-4.8-4-.7-5.4-1.4-10.1-2.1-15.1 1.7-1.4 3.1-.7 4.5.7s2.4 3.2 3.8 5c0 2.2-1.4 4.7 1 6.8 1.7-3.2 0-5-1.4-6.8 0-6.1 0-12.2.3-18 0-2.9 1-6.1 0-8.6-3.5-11.5-1-23.3 1-34.8.7-3.6 0-6.1-.7-9.7 1.4-.7 3.1-1.4 4.8-2.2 0-2.5-1-5.7 0-7.2 8-9.7 6.2-21.9 11.4-32.3 1.4-2.9 2.4-5.7 6.2-6.8 2.8-.7 2.4-4 2.8-6.5 0 0 2.4-2.5 3.8-4 2.1-2.2 3.1-4.7 2.1-7.9 0-.7-.7-1.4-.7-2.2 0-2.9 1-5 3.5-6.5 1.7-1.1 3.1 0 4.8 1.1.3.4 1.4.4 2.8.7.3-2.2.7-4.3 1.7-5.7 1-1.8 2.8-3.2 4.5-4.7 2.4-2.5 5.2-5 5.5-9.7-3.1 2.2-5.5 3.6-8.3 5.7v-16.2c3.1-4.3 6.9-6.5 12.5-6.1 2.4 0 5.2-1.4 8.3-2.2-1-2.2-1.7-3.6-2.4-5.4 3.5-3.6 9-4.3 13.1-6.8-3.9-.7-11.4 1.3-22.5 6.1 0 0-1.7-3.2-2.8-5.4-2.8 1.1-5.5 2.2-8.7 3.6 0-1.4-.7-2.2-.7-2.5.3-1.1 1-2.2 1.7-2.5 8.3-6.1 16.6-12.2 24.9-18 2.8-1.8 6.6-2.5 9.7-4.3 3.8-2.5 7.3-5.4 11.8-8.6-2.1-2.2-4.2-4.3-6.2-6.8 1.7-1.1 3.1-2.2 4.8-3.6 4.2 0 8 4 12.8 1.4 2.4-1.1 5.5-.7 9-1.1 3.8-5 8.6-9.7 15.9-11.1.7.7 1.7 1.4 2.8 2.2 2.1 1.4 3.1 0 4.2-1.8.7 0 1.7.7 2.4 1.1 0 0 .7-1.1.7-1.4 0 0-.7-.7-.7-.4-1 .4-1.7 1.1-2.8 1.4 0-1.4 0-3.2.7-4 2.1-1.8 4.8-2.9 8-4.3-1.7-1.1-3.5-2.5-3.8-2.2-3.5 3.6-7.6 2.2-12.1 4 .7-1.8.7-2.9 1.4-3.2 2.8-1.8 5.5-3.6 8.6-5.7 4.5 2.2 9 1.1 13.8-1.1s10-2.5 15.2-4c1.4 0 2.8-1.1 3.8-1.8 0 0 3.1-.7 4.8-1.4 3.5-.7 7.3-1.1 10.4-2.5 5.2-2.2 10.4.7 15.6-1.8.3 0 1.4 0 1.7.7 2.8 2.9 5.5 1.8 8.7.7 2.4-.7 5.2-2.5 8.3 0-2.1 1.8-4.2 3.6-6.2 5.4zM273.6 306s0-1.1.3-1.8v1.8c0 .7 0 1.1-.3 1.8zm115.6-98.8s-1-3.2-1.4-5l-2.4-6.5s.7-3.6-2.1-4.7c.7 1.8 1.4 3.2 2.1 4.7.7 2.2 1.7 4.3 2.4 6.5.4 1.8 1.1 3.2 1.4 5-.7.4-1.4 1.1-2.1 1.4-1.7-1.8-2.8-4.7-6.6-2.5.7 2.2 1.7 4.3 2.1 6.1 2.4 8.3 5.2 16.5 7.3 25.1 1 4.3 2.4 9 0 13.6-.7-1.1-1.7-2.2-2.4-3.6-.3-1.4-.7-3.2-1-4.7v-1.8 1.8c.3 1.4.7 3.2 1.4 4.7.7 1.1 1.4 2.2 2.1 3.2.7 4.3 1 8.3 1.7 12.6 0 0-1 .7-1.4 1.1-1.7-2.2 0-6.5-3.8-7.5-2.1 11.5-2.1 11.5 3.5 19.8 2.8-.4 4.5-2.5 4.8-5 .3-8.3.3-16.5.7-24.8 0-5.4 0-10.8-.3-16.2 0-1.4 0-3.2-.7-4-2.4-2.9-1.7-6.5-1.7-10.1 0-1.4-1.4-2.9-2.1-4.7 0-1.4-.3-3.2-.7-4.7h-.8zm-243.6 195s-1-1.1-1.7-1.4h-1.4c.3.4.7 1.4 1 1.4zc.3 0 .7.4 1 .7 0 0-.7 0-1-.4zm231.2-228.4c-.7-2.2-1.7-3.9-2.4-6.1 0 0-.7 0-1 .4 1 1.8 2.4 3.6 3.5 5.4-1.4 2.2-.3 4.3.7 6.1.3.7 1.7.7 2.4 1.1 0-.7.7-1.4.3-1.8-1.1-1.9-2.5-3.3-3.5-5.1m-47.4 43.1s0 2.2.3 3.2c.3 0 .7 0 1-.4-.7-.7-1.4-1.8-1.7-2.5 1.4-2.5.3-5-.7-6.8-.7-1.4-2.1-1.8-3.5.4 1.4 2.2 2.8 4.3 4.5 6.5v-.4zM110.3 386.1c.7 2.9 2.1 5 5.5 4l.7-.7c-.7-3.6-3.5-3.6-6.2-2.9-.3-.7-.7-1.1-1-1.8h-1.7c0 .7.3 1.4 1 1.4h2.1zm107.3-23.7s4.5.7 5.2-2.9c-2.1-2.5-5.2-3.6-8.3-2.5-1.7.4-1.7 2.2-.7 3.6l-5.5 1.4c.7-3.6.7-6.8-1.4-9.7h7.3c2.4 0 4.5 2.2 6.9 0-.3-3.6-3.5-4.3-5.9-4.7H209c-2.1 0-3.8-.7-6.2-1.4v3.6c-2.1-.4-4.2-1.1-6.2-1.4-9.7-2.2-19.4-5-29.8-.7-4.2 1.8-9 1.1-12.8-1.8-1.7-1.4-4.2-2.9-7.3 0 1.7 4.3 4.8 7.2 8.3 10.1 4.8 3.6 10 6.1 14.2 10.1s9 5 14.2 4.3c4.5-.7 9-2.2 14.2-3.6-1.4-3.2-2.8-5.4-4.2-8.3 5.9-1.8 10 1.4 14.5 3.2 1 4.3 4.8 4.3 8.3 4.3 2.4 0 2.1-2.2 1-3.9zm88.9-128.6c3.1-4.3-1-9 1-13.6.3-.7 0-2.2-.3-2.9-1-2.9-1.7-6.1-4.8-7.5-1.7-.7-3.1-2.5-5.9-4.3 2.8 9.3 5.2 17.2 7.6 25.1.3 1 1.7 2.1 2.4 3.2 0 1.4-1 2.9-.7 4.3.7 7.5 2.1 14.7 2.1 22.3 0 10.1 2.8 19.8 0 29.8-1.4 4.7-2.4 9-3.5 13.6-.7 2.5-1 4.7-1.4 7.2 7.3 0 11.8-1.8 14.2-7.9 3.1-7.2 5.5-14.4 7.6-21.5 1-2.9 0-6.5.3-9.3 2.1-11.5-3.1-20.8-6.9-30.2 0 0-.7 0-1-.4-3.1 1.1 0 5.7-4.2 6.8-.7-2.9-1.7-5.4-2.1-8.3-.3-3.2-2.8-4.7-4.8-6.5h.4zm-140.1-91.2c-2.4-1.8-4.8-2.2-8-1.4-3.5.7-6.9 1.4-10.4 0-5.2-2.9-9.7 0-13.5 2.9-3.1 2.5-5.9 5.4-8.3 8.6-2.1 2.9-4.5 6.1-5.2 9.7-1.4 5.4-3.1 10.4-6.6 14.7-1 1.1-.7 2.9 1.7 3.2 3.1-3.6 6.2-7.5 10.7-12.9-2.8 8.3-4.5 14.7-7.3 20.8-3.1 6.8-2.4 12.9 1.7 18 2.4 3.2 3.5 6.8 4.8 10.4 3.8 9 8.6 17.6 18 21.9h1.4-1.7c-2.1-1.8-2.4-4-1.7-6.8 1.4-5.4 2.8-10.4 3.5-15.8.3-3.2 1-6.1 2.8-9.3 3.8-7.2 7.6-14.4 10.4-21.5 3.1-8.3 5.2-16.5 7.6-24.8 0-.7-.3-1.4-.7-2.2-2.4 1.1-4.5 2.2-7.6 3.6 1.7-6.1 2.1-6.5 3.5-7.2 1.4-.4 2.8-.7 4.2-.7 4.2-.7 6.2-4 4.5-7.5-.7-1.8-1.7-4-4.5-3.2zm134.2 103c-2.1 6.1-1.7 11.5-2.1 16.5-.3 5.4-.7 10.8-1.7 16.2-2.4 10.1-5.5 20.1-8 30.5 0 1.1.3 2.5 1 3.6 0 0 2.1 0 2.8-.7 2.8-3.6 6.9-7.2 8.3-11.5 5.9-17.6 5.2-35.6 1.7-53.2 0 0-.3-.4-1.7-1.4zm-73.3 128.2c7.3.7 12.5 1.1 17.3 2.2 4.8.7 7.3-1.8 8-5 4.5 0 9 1.1 11.8-.4 4.2-2.5 8-1.4 12.1-1.8 1.7 0 3.8 0 4.2-2.9-6.6-5-13.8-3.9-21.1 0-5.9-.7-11.1-4.3-17.3-1.8-1 .4-2.8-.4-3.8-1.1-1.4-.7-2.8-1.8-4.5-2.5-.7 0-1.7.4-2.8.7 1 2.9 5.5 4 3.5 8.3-2.1 1.1-4.2 2.2-8 4.3zm-109-226.2c2.1-2.9 3.8-5 6.9-3.2 0 0 1.4-1.4 1.4-2.2 0-1.4-.3-2.5-.7-4.3 2.1-.4 4.5 0 5.2-1.4 3.5-4.3 7.3-3.6 11.8-3.6 5.2 0 10.4.7 14.9-3.2-.3-.7-.7-1.4-1-1.8-4.5-2.2-8.6-2.9-14.2-1.8-5.9 1.4-11.8 1.1-17.3 4.3-9.3 5-15.2 13.3-20.8 21.9-.3.7 0 1.8 0 2.9 5.9-.4 5.9-5.7 7.6-9.7 2.1.7 3.8 1.1 5.9 1.8zm17.6 180.6c-6.9-.7-8.3-8.3-14.9-11.1 4.8 9.3 9.7 17.6 19.7 21.2v-5.7c3.5 1.4 6.6 2.2 8.7 4 3.1 3.2 7.3 4 11.1 4.7 1 0 2.4-.7 3.8-1.1-.7-3.2-3.5-2.5-4.8-4-1.7-1.8-2.4-4.3-4.5-5.7-5.9-4.3-12.1-8.3-20.1-7.5.3 2.2.7 3.2 1 4.7zM266 405.5s2.4 1.1 3.5 1.1c6.6-.7 13.1-1.1 19.7-2.2 2.8-.4 5.5-1.8 8-2.9.7 0 1.4-1.8 1.4-2.5s-1-2.2-1.7-2.5c-2.1-.4-4.5-1.1-6.2 0-3.5 1.8-6.6 1.8-10 2.2-4.5.7-9 1.4-13.5 2.5-.7 0-1.7 1.4-2.1 2.2 0 .4 0 1.4.3 2.5zM191.3 23.3s.7.7 1 .7c5.5-1.1 11.1-2.2 16.6-3.6 2.4-.7 4.5-2.2 6.6-4 .7-.4 1-2.2.7-2.9 0-.7-1.7-1.1-2.4-.7-6.6 2.5-13.5 5-20.1 7.5-.7 0-1.4 1.4-1.7 2.2zm130.8 211.9c-.3-10.4-4.2-20.5-10.4-28 0 1.8-.3 3.6 0 4.7 3.8 7.2 4.8 16.2 10.4 23.7zM237 278.3c7.3 0 9.3-.7 10.4-4.3.7-2.9 1.4-6.1-3.1-8.6-1.4 5-7 7.5-7.3 12.9m65.7 63.6c5.2-.7 8.3-1.1 11.1-1.8 1 0 1.4-1.8 2.8-4-5.5-.7-9.7-1.4-14.2 5.7h.3zM150.1 51c-3.5 1.4-6.6 2.2-7.6 6.1 7.3 1.1 9 .7 10-2.2-.6-1.1-1.7-2.5-2.4-3.9m209.4 246.7c-1 4.3-4.5 7.9-3.5 13.3 4.5-4.3 4.5-8.6 3.5-13.3m-46.8 92.7s-.3-.7-.7-.7c-2.4-1.1-5.9 1.4-6.2 4v1.1c1.7 1.1 6.2-1.1 6.9-3.2zM257 356.6c-4.2-3.2-8-3.6-11.8-3.2 3.5 1.4 5.6 5.7 11.8 3.2m50.2-321.4c.7 5.7 2.8 6.8 9 7.2-3.1-2.6-5.2-4.4-9-7.2m-16.6 142.2c-.7-4.3-2.4-7.3-5.2-9 .7 3.4 2.4 6.4 5.2 9M328 357.3l-.7-.7c-1.4.7-3.1 1.1-4.5 1.8v1.8c1.7 1.4 3.1 0 4.2-1.1.3-.3.6-1.1 1-1.8m-149.8 58.9v-1.8c-1.4-.7-2.8-1.4-4.2-2.2h-1c0 .7-.3 1.4 0 1.8 1 1.1 2.4 1.8 3.8 2.5 0 0 1-.4 1.7-.7zm-60.9-147.9c.7-3.2.3-6.5-3.8-5.4 1.3 2.1 2.7 3.6 3.8 5.4m210-178.5s.7.7 1 .7c.7 0 1.4 0 1.7-.7.7-1.4 0-3.6-1.7-3.6-.3 0-1.4.7-1.4 1.1 0 1 0 1.7.4 2.5M213.4 27.6v-2.2h-2.8v1.8h2.8zm153.7 127.9h-.7s1.4 2.5 2.4 3.2h.7s-1.4-2.5-2.4-3.2m-51.9 213s.7-1.8 1-2.2c-1 0-1.7-.4-2.4 0 0 0-.7 1.1-.7 1.8.7 0 1.7.7 2.4.7zm29-285.9.7-.7c-.3-.7-1-1.4-1.4-2.5l-1 1.1c.7.6 1 1.4 1.7 2.1M318.3 325h1.7v-.7h-1.7zm6.6 65.7s-1.7.4-2.8.7v1.1c1 0 1.7.4 2.8.4zM97.2 243.1v-1.8h-.7v1.8zm173 113.5h-1.7v.7h1.7zm8.3-196.1-1.4-1.1s-.3 1.1 0 1.4c0 .4 1 .7 1.4 1.1zm-199 192.2s1 0 1.7-.4v-.7h-1.7v1.8zM322.8 85.8v-2.9h-1.4c0 .7-.3 1.4 0 1.8 0 .4.7.7 1.7 1.1zM128.3 397.6h1v-1.1h-1.4c.1 0 .1.7.4 1.1m-39.8-47.8s-.3-.4-.7-.7v1.1c0-.1.4-.1.7-.4m36 49.5s.3-.4.3-.7c0 0-.3-.7-.7-.7 0 0-.3.7-.7 1.1 0 0 .7 0 .7.4h.4zM320.4 48.8s.7 0 .7-.4v-1.1c-.3 0-.7.4-1 .7 0 0 .3.4.7.7h-.4zm17.9 297.4s.3-1.1.7-1.4c0 0-.7-.4-.7 0-.3.4-.7.7-1 1.4.3 0 .7.4 1.4.7zm-55-35.9s0-.7.3-1.1h-1.4v1.1zm-55 41.3v1.8h.7v-1.8h-1zm19.1 60h1v-.7l-.7.7zm124.9-178.2v-.7l-.7.4h.7zm29 26.6h.7c0-.4-.3-.7-.7-1.1zm-17.6-33.4v-.7h-.7v.7zm-100-171.7h-.7v.7h1.4v-.7zm-100 361.3h-.7v.4h.3zm30.1 9h.7v-.7h-.7zm6.2 1.4s0-.7-.3-.7h-.7s0 .7.3.7zm-9.3-309.9h-.7s.3.4.7.7z"/><path d="M16.2 216.9c.7-2.2 1.4-4 2.1-6.1 1.4-7.5 2.8-14.7 4.2-22.3h1.4c0 2.5.3 5 .3 7.5-.3 8.3-1 16.5-1.4 24.8 0 1.4 1 2.5 1 3.9.3 2.5 1.4 5.4.3 7.2-3.1 6.1-.7 11.5.7 16.9 2.8 10.8 5.9 21.2 9.7 31.2 5.2 12.9 9.7 26.6 20.1 36.6.3.4.3 1.1 1 3.2-3.5-2.5-5.9-4.3-8.7-5.7 0-.7 0-1.1-.3-1.8 0 .7.3 1.1.7 1.8-1 .7-1.7 1.1-3.1 2.2-2.4-2.5-3.5-6.8-7.3-7.9l-.7-.7c1.7-6.5-3.8-8.3-6.6-11.9-1-1.4-1.4-3.2-2.1-4.7-4.2-10.8-7.6-21.9-8.6-33.8 0-2.5-2.4-5-3.8-7.2-1.7-2.9-2.4-6.5 0-9 3.8-4.3 3.1-8.6 1.7-12.9-.7-2.2-2.1-3.6-2.4-5.7 0-1.4.3-3.6.7-5h.3zM28 167.3c0-7.5 3.8-14.4 7.3-21.2 1.7-3.6 3.8-6.8 5.2-10.8 1.4-4.3 4.5-8.3 9.7-8.6-5.9 14-12.8 27.3-20.4 40.2h-1z"/><path d="M50.1 127.1c-3.1-4.3-3.5-4.3-1.4-6.8 5.2-6.8 10.4-13.6 16.6-21.5h4.8v2.2c-7.3 7.2-13.5 15.1-18 24.1-.3.7-1.7 1.4-2.4 2.2h.4zm252.3 305.6c11.1-3.2 22.1-6.8 33.2-10.1.7 2.2-1 2.5-2.1 2.9-8.3 4.3-17 7.5-25.9 9.3-2.4.4-4.2-.4-5.2-2.5zm-45.7 3.6c6.9-2.2 13.5-2.2 20.8.7-6.6 3.6-12.8 3.6-20.8-.7m45.7-3.9s-1.7 2.9-2.8 3.2c-5.9 1.8-12.1 2.9-18.3 1.8 0 0-.3-.4-.7-1.1 6.9-4 14.5-3.2 21.8-3.6zM168.1 22.6c-8 7.5-15.2 10.8-23.5 13.3 3.4-5 14.2-11.1 23.5-13.3M22.5 188.5c.7-7.2 1.4-14.7 5.5-21.2h1c0 7.5-1.7 14.7-5.5 21.5h-1.4zm29.4-92.3c1.4-2.6 4.5-5.5 9.3-8.6 0 0 1 1.1 1 1.4-1.7 4.4-4.1 7.6-10.3 7.2m376.8 128.6c-2.1-6.1-4.8-11.9-5.2-18.7 3.1 5.7 4.8 11.9 4.8 18.7zm-10.1 22.6c2.8 5.7 2.4 12.2 0 18.3 0-4-.7-7.9-.7-12.2 0-2.2.7-4.3 1-6.5zM79.9 90.5c2.4-2.2 4.8-4 7.6-6.5.7 1.4 1.4 2.5 2.1 3.6-6.9 5-7.3 5-9.7 2.9m-36.7 17.6s-1-1.4-.7-1.4c1-2.5 1.7-5.4 5.2-5.7 0 0 .7 0 .7.7.3 4-3.1 4.3-4.8 6.8zM86.5 70c1.4-2.9 2.4-5.7 6.2-4.7 0 0 .7.4.7.7-.3 4-3.5 3.2-6.6 4zM101 59.6s-2.1 2.5-3.1 3.6c0 0-1.4 0-1.7-.7 0-.4-.3-1.4 0-1.8 1-1.8 2.4-2.5 4.8-1.1m217.6 349.8h-1.7c.3-.7.7-1.4 1-2.2 0 0 1 .4 1.7.7 0 .7-.7 1.1-1 1.8zm65.8-44.9s1-2.5 1.7-3.2c.7-.4 1.7-.4 2.4-.4-.3.7-.7 1.8-1 2.5-.7.7-1.7.7-3.1 1.4zM349.1 413s2.1-2.2 3.1-3.2c0 0 .3.4.7.7-.7 1.1-1.4 2.5-2.1 3.6-.7 0-1-.7-1.7-1.1M15.2 195.4c0 2.2 0 3.9.3 6.5-2-1.5-2.2-3.7-.3-6.5m27-99.9s1.7-2.2 2.8-3.2c0 0 1 0 1.7.4-.7 1.1-1.4 2.5-2.1 3.6 0-.1-1-.1-2.4-.8m38-22.3c0 3.6.3 5.4.7 8.3-3.1-2.5-3.8-3.9-.7-8.3M41.1 255.7v1.8c-.7 0-1-.4-1.4-.7v-1.1h1.7zm-24.9-38.8h-.3s-1.7-1.4-2.4-2.2c.3 0 .7-.7 1.4-1.1.7 1.1 1 2.2 1.7 3.2h-.4zM192 8.6h-2.1c0-.7 0-1.1.3-1.8.7 0 1 0 1.7.4v1.4zm204.8 333.3h-.7c0-.4.3-.7.7-1.1zm-5.2 10.8v-1.1h1s0 1.1-.3 1.4c0 0-.3 0-.7-.3M103.4 51h-1.7v-1.4h1.7zm240.5 367.7s-.3.4-.7.7c0-.4 0-.7-.3-1.4h.7v.7zM29.7 118.9s0-1.1.3-1.8h.7c0 .7 0 1.1-.3 1.8 0 0-.7 0-1-.4zm-3.4 6.1h-.7s0-.7.3-1.1c.3 0 .7 0 1.4.4 0 0-.7.4-.7.7zm-4.2 5.7v.7h-1.4s0-.7.3-.7zm381.6 188.6.3.4-.7.4zM171.9 21.5s-1-.4-1.4-.7v-.7c.3 0 1 .4 1.4.7 0 0 0 .4-.3.7zm234.6 258.6-.3-.7h.3zm21.8-55.3s.3.7.7.7v-.7zM261.9 5.4h1.7v1.4l-1.4-1.1zm158.8 193.2.7.7-.7.4zM36.6 111.7s0 .4-.3.7v-1.1s.3 0 .7.4zM75.7 149h-1.4.7s.3 0 .7.4zm-5.8-54.9s-.7-.4-1-.7c0 0 0-.4.3-.7 0-.1 0 .7.7 1.4M67.8 84h-.7v-1.4h.7zm9.3 1.8-.3.7-.3-.7zm7.3-12.2s-1-.4-1.4-.7v-.7c.3 0 1 .4 1.4.7zM105.5 56l.3-.7.3.7zm295.1 277.3-.7.7-.3-.4zm1.8-7.6.7.4-1 .4zM132.1 155.8s3.1-2.2 5.9-4.3c-1.4 4-3.1 4.7-5.9 4.3m33.9-13.2s.7 1.1 1 1.4v1.1c-.3 0-1.4-.4-1.4-.7 0-.4.3-1.1.7-1.8zm18 218.7.7-.4.3.7zm18.7-10.8s3.1 1.4 4.5 1.8c-1.4-.7-3.1-1.4-4.5-1.8m184.8-142.2s1.7 2.2 2.8 3.6c-1.8-.4-3.5-1.1-2.8-3.6M213.4 360.6s3.1 1.4 4.5 1.8c-1.3-.8-3.1-1.5-4.5-1.8"/></svg>