<svg xmlns="http://www.w3.org/2000/svg" width="3146.699" height="880.196"><g transform="translate(73.35 73.35)scale(7.33496)"><defs><linearGradient id="a"><stop offset="0" stop-color="#905e26"/><stop offset=".5" stop-color="#f5ec9b"/><stop offset="1" stop-color="#905e26"/></linearGradient><linearGradient id="b"><stop offset="0" stop-color="#905e26"/><stop offset=".5" stop-color="#f5ec9b"/><stop offset="1" stop-color="#905e26"/></linearGradient><linearGradient id="c"><stop offset="0" stop-color="#905e26"/><stop offset=".5" stop-color="#f5ec9b"/><stop offset="1" stop-color="#905e26"/></linearGradient><linearGradient id="d"><stop offset="0" stop-color="#905e26"/><stop offset=".5" stop-color="#f5ec9b"/><stop offset="1" stop-color="#905e26"/></linearGradient></defs><g fill="url(#a)" transform="translate(-12.5 -12.5)scale(1.25)"><path xmlns="http://www.w3.org/2000/svg" d="M50 10H10v40c0 22.09 17.91 40 40 40h40V50c0-22.09-17.91-40-40-40m33.333 73.333H50c-18.379 0-33.333-14.954-33.333-33.333V16.667H50c18.379 0 33.333 14.955 33.333 33.333z"/><path xmlns="http://www.w3.org/2000/svg" d="M50 23.333c-14.727 0-26.667 11.94-26.667 26.667S35.273 76.667 50 76.667 76.667 64.727 76.667 50 64.727 23.333 50 23.333M50 70c-11.048 0-20-8.955-20-20s8.952-20 20-20c11.045 0 20 8.955 20 20s-8.955 20-20 20"/><path xmlns="http://www.w3.org/2000/svg" d="M50 36.667c-7.363 0-13.333 5.97-13.333 13.333S42.637 63.333 50 63.333 63.333 57.363 63.333 50 57.363 36.667 50 36.667m0 20a6.667 6.667 0 1 1 0-13.334 6.667 6.667 0 0 1 0 13.334"/></g><g fill="url(#b)" transform="translate(408 76)"><circle xmlns="http://www.w3.org/2000/svg" cx="-285" cy="-51" r="3"/><circle xmlns="http://www.w3.org/2000/svg" cx="-285" cy="-25.5" r="3"/><circle xmlns="http://www.w3.org/2000/svg" cx="-285" r="3"/></g><path fill="url(#c)" d="M8.16 5.8c3.9 0 7.26 2.94 7.26 7.2s-3.36 7.2-7.26 7.2S.9 17.26.9 13s3.36-7.2 7.26-7.2m0 11.66c2.36 0 4.22-1.86 4.22-4.46s-1.86-4.46-4.22-4.46S3.94 10.4 3.94 13s1.86 4.46 4.22 4.46M26.68 6h2.92v14h-2.22l-6.94-8.68V20h-2.92V6h2.26l6.9 8.7zm8.24 11.32h5.92V20H32V6h8.66v2.68h-5.74v2.96h4.34v2.64h-4.34zM68.28 6l-4.6 14h-2.1l-3.28-8.86L55.04 20h-2.1l-4.6-14h3.08l2.68 8.3L57.16 6h2.3l3.06 8.3L65.2 6zm10.26 14-1.06-2.5h-6.76L69.66 20h-3.1l6.22-14h2.64l6.24 14zm-6.8-4.88h4.72L74.1 9.58zM94.28 20h-3.1l-2.98-4.66h-2.02V20h-2.92V6h4.9c3.14 0 5.18 1.9 5.18 4.76 0 1.9-.92 3.32-2.48 4.04zm-8.1-11.32v4.14h1.8c1.44 0 2.44-.56 2.44-2.06 0-1.48-1-2.08-2.44-2.08zM101.08 6c3.98 0 7.1 3.12 7.1 6.92 0 3.96-3.12 7.08-7.1 7.08h-5V6zm-.02 11.24c2.68 0 4.12-1.94 4.12-4.32 0-2.22-1.44-4.16-4.12-4.16H99v8.48z" transform="translate(137.903 11.484)scale(2.33035)"/><path fill="url(#d)" d="M4.38 14.02v3.8h9.2V20H2.2V5.08h10.5v2.2H4.38v4.52q.62-.36 1.38-.48.56-.1 1.44-.1h3.26v2.22H7.2q-.82 0-1.44.1-.76.14-1.38.48M35.28 7l-1.4 1.64q-.82-.84-1.96-1.32t-2.4-.48q-1.64 0-2.99.74T24.42 9.6q-.78 1.34-.78 2.98 0 1.56.84 2.88.8 1.24 2.15 1.97t2.91.73q1.44 0 2.68-.62t2.06-1.72l1.34 1.82q-1.14 1.28-2.73 1.99t-3.37.71q-2.22 0-4.08-1.08-1.82-1.04-2.86-2.86-1.08-1.86-1.08-4.08 0-2.14 1.14-3.94 1.08-1.72 2.93-2.73t3.97-1.01q1.66 0 3.16.64 1.46.6 2.58 1.72m16.44 5.44q0-1.6-.82-2.9-.78-1.26-2.13-1.98t-2.93-.72q-1.64 0-2.99.74T40.74 9.6q-.78 1.34-.78 2.98 0 1.56.84 2.88.8 1.24 2.15 1.97t2.92.73 2.92-.76 2.13-2.04q.8-1.34.8-2.92m2.16.12q0 2.16-1.12 3.98-1.08 1.74-2.93 2.77t-3.99 1.03q-2.22 0-4.08-1.08-1.82-1.04-2.86-2.86-1.08-1.86-1.08-4.08 0-2.14 1.14-3.94 1.08-1.72 2.93-2.73t3.97-1.01q2.18 0 4.04 1.06 1.82 1.04 2.88 2.82 1.1 1.86 1.1 4.04m16.14-2.82-5.1 6.1-5.06-6.1V20h-2.14V7.18l-1.74-2.1h2.82l6.1 7.32 6.18-7.32h2.82l-1.74 2.1V20h-2.14zm19.72 0-5.1 6.1-5.06-6.1V20h-2.14V7.18l-1.74-2.1h2.82l6.1 7.32 6.18-7.32h2.82l-1.74 2.1V20h-2.14zm9.16 4.28v3.8h9.2V20H96.72V5.08h10.5v2.2H98.9v4.52q.62-.36 1.38-.48.56-.1 1.44-.1h3.26v2.22h-3.26q-.82 0-1.44.1-.76.14-1.38.48m14.88-6.76v4.96q.62-.36 1.38-.48.56-.1 1.44-.1h2.84q1.18 0 1.84-.54.7-.58.7-1.74 0-1.1-.74-1.64-.64-.46-1.8-.46zm6.38 10.38-1.82-3.82h-1.74q-.82 0-1.44.1-.76.14-1.38.48V20h-2.18V5.08h7.84q1.38 0 2.44.52t1.64 1.48q.62 1.02.62 2.4 0 1.68-.9 2.76t-2.54 1.5l1.16 2.38q.5.74.78 1.04.34.38.65.51t.81.13h.22l.48-.02V20q-1.16 0-1.72-.08-.94-.16-1.6-.62-.78-.56-1.32-1.66M141.18 7l-1.4 1.64q-.82-.84-1.96-1.32t-2.4-.48q-1.64 0-2.99.74t-2.11 2.02q-.78 1.34-.78 2.98 0 1.56.84 2.88.8 1.24 2.15 1.97t2.91.73q1.44 0 2.68-.62t2.06-1.72l1.34 1.82q-1.14 1.28-2.73 1.99t-3.37.71q-2.22 0-4.08-1.08-1.82-1.04-2.86-2.86-1.08-1.86-1.08-4.08 0-2.14 1.14-3.94 1.08-1.72 2.93-2.73t3.97-1.01q1.66 0 3.16.64 1.46.6 2.58 1.72m5.72 7.02v3.8h9.2V20h-11.38V5.08h10.5v2.2h-8.32v4.52q.62-.36 1.38-.48.56-.1 1.44-.1h3.26v2.22h-3.26q-.82 0-1.44.1-.76.14-1.38.48m22.78-7.36-.82-1.84h2.4L178.44 20H176l-.98-2.18h-4.54q-1.28 0-2.3.24-.9.22-1.5.58-.54.32-.72.66l-.38.7h-2.36zm1.6 8.96h2.76l-3.26-6.3-3.3 7.14q.44-.38 1.34-.6 1.02-.24 2.46-.24m10.4-8.44-1.74-2.1h2.82l9.58 11.4V5.08h2.2V20h-2.16l-8.56-10.26V20h-2.14zm20.24.1v10.54h3.38q1.4 0 2.52-.72 1.06-.7 1.66-1.88t.6-2.58q0-1.46-.57-2.68t-1.63-1.94q-1.14-.74-2.62-.74zm-3.32 0-.96-2.2h7.6q1.98 0 3.62 1.02 1.58.98 2.5 2.68t.92 3.7q0 1.5-.59 2.97t-1.63 2.57q-1 1.08-2.14 1.54-1.1.44-2.62.44h-5.52V7.28zM233.88 7l-1.4 1.64q-.82-.84-1.96-1.32t-2.4-.48q-1.64 0-2.99.74t-2.11 2.02q-.78 1.34-.78 2.98 0 1.56.84 2.88.8 1.24 2.15 1.97t2.91.73q1.44 0 2.68-.62t2.06-1.72l1.34 1.82q-1.14 1.28-2.73 1.99t-3.37.71q-2.22 0-4.08-1.08-1.82-1.04-2.86-2.86-1.08-1.86-1.08-4.08 0-2.14 1.14-3.94 1.08-1.72 2.93-2.73t3.97-1.01q1.66 0 3.16.64 1.46.6 2.58 1.72m16.44 5.44q0-1.6-.82-2.9-.78-1.26-2.13-1.98t-2.93-.72q-1.64 0-2.99.74t-2.11 2.02q-.78 1.34-.78 2.98 0 1.56.84 2.88.8 1.24 2.15 1.97t2.92.73 2.92-.76 2.13-2.04q.8-1.34.8-2.92m2.16.12q0 2.16-1.12 3.98-1.08 1.74-2.93 2.77t-3.99 1.03q-2.22 0-4.08-1.08-1.82-1.04-2.86-2.86-1.08-1.86-1.08-4.08 0-2.14 1.14-3.94 1.08-1.72 2.93-2.73t3.97-1.01q2.18 0 4.04 1.06 1.82 1.04 2.88 2.82 1.1 1.86 1.1 4.04m15 2.9q0 1.46-.88 2.6-.86 1.08-2.37 1.68t-3.41.6q-1.74 0-3.38-.81t-2.76-2.25l1.56-1.46q1.94 2.34 4.58 2.34 1.16 0 2.12-.28 1.06-.32 1.64-.9.66-.64.66-1.52 0-1.06-.66-1.6-.56-.46-1.66-.6-.64-.08-2.1-.08-2.68 0-4.09-.98t-1.41-2.88q0-1.2.71-2.28t1.95-1.72q1.28-.68 2.84-.68 1.76 0 3.18.54 1.52.58 2.82 1.82l-1.36 1.6q-1.22-.98-2.22-1.37t-2.42-.39q-.82 0-1.53.34t-1.13.91-.42 1.21q0 1.72 3.18 1.72 2.54 0 4.02.52 1.4.5 2 1.52.54.9.54 2.4m15.94-5.72-5.1 6.1-5.06-6.1V20h-2.14V7.18l-1.74-2.1h2.82l6.1 7.32 6.18-7.32h2.82l-1.74 2.1V20h-2.14zm9.16 4.28v3.8h9.2V20H290.4V5.08h10.5v2.2h-8.32v4.52q.62-.36 1.38-.48.56-.1 1.44-.1h3.26v2.22h-3.26q-.82 0-1.44.1-.76.14-1.38.48m23.8-6.74h-5.26V20H309V7.28h-5.32v-2.2h12.7zM321.32 20h-2.14V5.08h2.14zM338.5 7l-1.4 1.64q-.82-.84-1.96-1.32t-2.4-.48q-1.64 0-2.99.74t-2.11 2.02q-.78 1.34-.78 2.98 0 1.56.84 2.88.8 1.24 2.15 1.97t2.91.73q1.44 0 2.68-.62t2.06-1.72l1.34 1.82q-1.14 1.28-2.73 1.99t-3.37.71q-2.22 0-4.08-1.08-1.82-1.04-2.86-2.86-1.08-1.86-1.08-4.08 0-2.14 1.14-3.94 1.08-1.72 2.93-2.73t3.97-1.01q1.66 0 3.16.64 1.46.6 2.58 1.72m20.06.28h-5.26V20h-2.12V7.28h-5.32v-2.2h12.7zm4.98-.02v4.96q.62-.36 1.38-.48.56-.1 1.44-.1h2.84q1.18 0 1.84-.54.7-.58.7-1.74 0-1.1-.74-1.64-.64-.46-1.8-.46zm6.38 10.38-1.82-3.82h-1.74q-.82 0-1.44.1-.76.14-1.38.48V20h-2.18V5.08h7.84q1.38 0 2.44.52t1.64 1.48q.62 1.02.62 2.4 0 1.68-.9 2.76t-2.54 1.5l1.16 2.38q.5.74.78 1.04.34.38.65.51t.81.13h.22l.48-.02V20q-1.16 0-1.72-.08-.94-.16-1.6-.62-.78-.56-1.32-1.66m12.9-10.98L382 4.82h2.4L391.58 20h-2.44l-.98-2.18h-4.54q-1.28 0-2.3.24-.9.22-1.5.58-.54.32-.72.66l-.38.7h-2.36zm1.6 8.96h2.76l-3.26-6.3-3.3 7.14q.44-.38 1.34-.6 1.02-.24 2.46-.24m12.94-8.34v10.54h3.38q1.4 0 2.52-.72 1.06-.7 1.66-1.88t.6-2.58q0-1.46-.57-2.68t-1.63-1.94q-1.14-.74-2.62-.74zm-3.32 0-.96-2.2h7.6q1.98 0 3.62 1.02 1.58.98 2.5 2.68t.92 3.7q0 1.5-.59 2.97t-1.63 2.57q-1 1.08-2.14 1.54-1.1.44-2.62.44h-5.52V7.28zM413.26 20h-2.14V5.08h2.14zm4.84-12.82-1.74-2.1h2.82l9.58 11.4V5.08h2.2V20h-2.16l-8.56-10.26V20h-2.14zM448.14 7l-1.4 1.64q-.82-.84-1.96-1.32t-2.4-.48q-1.64 0-2.99.74t-2.11 2.02q-.78 1.34-.78 2.98 0 1.56.84 2.88.8 1.24 2.15 1.97t2.91.73q1.1 0 2.11-.38t1.81-1.06V14h-1.92l-.94-2.16h5.02v5.8q-1.14 1.28-2.73 1.99t-3.37.71q-2.22 0-4.08-1.08-1.82-1.04-2.86-2.86-1.08-1.86-1.08-4.08 0-2.14 1.14-3.94 1.08-1.72 2.93-2.73t3.97-1.01q1.66 0 3.16.64 1.46.6 2.58 1.72" transform="translate(163.014 66.92)scale(.44815)"/></g></svg>